<svg width="140" height="140" viewBox="0 0 140 140" fill="none" xmlns="http://www.w3.org/2000/svg">
<g id="Vertical_speed">
<circle id="Circle_1" cx="70" cy="70" r="69" fill="#2C2C2E" stroke="white" stroke-width="2"/>
<g id="Number">
<text id="0" fill="white" xml:space="preserve" style="white-space: pre" font-family="Rubik" font-size="12" letter-spacing="0em"><tspan x="12" y="74.11">0</tspan></text>
<text id="2" fill="white" xml:space="preserve" style="white-space: pre" font-family="Rubik" font-size="16" letter-spacing="0em"><tspan x="28" y="37.98">2</tspan></text>
<text id="2_2" fill="white" xml:space="preserve" style="white-space: pre" font-family="Rubik" font-size="16" letter-spacing="0em"><tspan x="30" y="113.98">2</tspan></text>
<text id="6" fill="white" xml:space="preserve" style="white-space: pre" font-family="Rubik" font-size="16" letter-spacing="0em"><tspan x="101" y="37.98">6</tspan></text>
<text id="6_2" fill="white" xml:space="preserve" style="white-space: pre" font-family="Rubik" font-size="16" letter-spacing="0em"><tspan x="99" y="112.98">6</tspan></text>
<text id="8" fill="white" xml:space="preserve" style="white-space: pre" font-family="Rubik" font-size="16" letter-spacing="0em"><tspan x="118" y="75.98">8</tspan></text>
<text id="4" fill="white" xml:space="preserve" style="white-space: pre" font-family="Rubik" font-size="16" letter-spacing="0em"><tspan x="63" y="24.98">4</tspan></text>
<text id="4_2" fill="white" xml:space="preserve" style="white-space: pre" font-family="Rubik" font-size="16" letter-spacing="0em"><tspan x="64" y="125.98">4</tspan></text>
</g>
<text id="VERTICAL SPEED" fill="white" xml:space="preserve" style="white-space: pre" font-family="Rubik" font-size="10" letter-spacing="0em"><tspan x="47.2334" y="42.425">VERTICAL&#x2028;</tspan><tspan x="54.6699" y="54.425">SPEED</tspan></text>
<g id="Arrow">
<path id="Rectangle 173" d="M23.8571 68H52.9286V73.1429H23.8571L20 70.5714L23.8571 68Z" fill="white"/>
<rect id="Rectangle 174" x="53" y="68" width="24" height="5" fill="#1C1C1E"/>
<circle id="Ellipse 56" cx="70.5" cy="70.5" r="3.25" fill="#2C2C2E" stroke="#1C1C1E" stroke-width="2.5"/>
</g>
<g id="UP">
<text id="UP_2" fill="white" xml:space="preserve" style="white-space: pre" font-family="Rubik" font-size="8" letter-spacing="0em"><tspan x="24.625" y="53.24">UP</tspan></text>
<path id="Vector" d="M19.3849 51.9235L20.6894 47.4274L21.4501 48.81C21.6799 49.2277 22.2044 49.3799 22.622 49.15C23.0394 48.9204 23.192 48.3961 22.962 47.9781L21.1904 44.7937C20.9606 44.376 20.4362 44.2239 20.0185 44.4537L16.8177 46.1954C16.4 46.4252 16.2479 46.9497 16.4777 47.3674C16.7075 47.785 17.2319 47.9372 17.6496 47.7074L19.0319 46.9465L17.7275 51.4427C17.1689 53.3678 17.9027 55.4261 19.5519 56.5644C19.945 56.8355 20.4818 56.7368 20.7504 56.3435C20.8066 56.2658 20.8452 56.1812 20.8703 56.0944C20.9711 55.7471 20.8456 55.3603 20.5318 55.1437C19.4949 54.4284 19.034 53.1331 19.3849 51.9235Z" fill="white"/>
</g>
<g id="DN">
<text id="DN_2" fill="white" xml:space="preserve" style="white-space: pre" font-family="Rubik" font-size="8" letter-spacing="0em"><tspan x="24.9902" y="92.24">DN</tspan></text>
<path id="Vector_2" d="M19.3849 87.9998L20.6894 92.496L21.4501 91.1133C21.6799 90.6956 22.2044 90.5435 22.622 90.7733C23.0394 91.0029 23.192 91.5273 22.962 91.9453L21.1904 95.1296C20.9606 95.5473 20.4362 95.6995 20.0185 95.4696L16.8177 93.7279C16.4 93.4981 16.2479 92.9736 16.4777 92.556C16.7075 92.1383 17.2319 91.9861 17.6496 92.216L19.0319 92.9768L17.7275 88.4807C17.1689 86.5556 17.9027 84.4973 19.5519 83.359C19.945 83.0879 20.4818 83.1866 20.7504 83.5798C20.8066 83.6576 20.8452 83.7421 20.8703 83.8289C20.9711 84.1762 20.8456 84.5631 20.5318 84.7796C19.4949 85.4949 19.034 86.7903 19.3849 87.9998Z" fill="white"/>
</g>
<g id="Digit">
<rect x="44.5" y="79.5" width="51" height="31" rx="1.5" fill="#2C2C2E"/>
<g id="First_digit">
<rect width="15" height="24" transform="translate(52 83)" fill="url(#paint0_linear_4735_84528)"/>
<text id="6_3" fill="white" xml:space="preserve" style="white-space: pre" font-family="Rubik" font-size="20" letter-spacing="0em"><tspan x="53" y="101.85">6</tspan></text>
</g>
<text id="." fill="white" xml:space="preserve" style="white-space: pre" font-family="Rubik" font-size="20" letter-spacing="0em"><tspan x="67" y="101.85">.</tspan></text>
<g id="Second_digit">
<rect width="15" height="24" transform="translate(73 83)" fill="url(#paint1_linear_4735_84528)"/>
<text id="4_3" fill="white" xml:space="preserve" style="white-space: pre" font-family="Rubik" font-size="20" letter-spacing="0em"><tspan x="74" y="101.85">4</tspan></text>
</g>
<rect x="44.5" y="79.5" width="51" height="31" rx="1.5" stroke="white"/>
</g>
<g id="Circle_3" opacity="0.4">
<path d="M75.2215 7.64598L75.7142 2.06322L75.0222 2L74.5368 7.57435L75.2215 7.64598Z" fill="white"/>
<path d="M81.7812 8.62746L82.8424 3.13224L82.1691 2.9965L81.1079 8.49173C81.2189 8.51575 81.3317 8.53767 81.4445 8.5596C81.5574 8.58152 81.6702 8.60344 81.7812 8.62746Z" fill="white"/>
<path d="M89.8337 4.95475L88.2153 10.2983C88.1037 10.2664 87.994 10.2324 87.8842 10.1984C87.7745 10.1644 87.6648 10.1304 87.5533 10.0985L89.1789 4.74648L89.8337 4.95475Z" fill="white"/>
<path d="M100.5 15.5L103.174 10.63L102.573 10.2914L99.8845 15.1782C99.9764 15.2315 100.072 15.2811 100.168 15.3313C100.276 15.3876 100.385 15.4446 100.493 15.5084L100.5 15.5Z" fill="white"/>
<path d="M96.6642 7.37218L94.5 12.5L94.5083 12.5074C94.3422 12.431 94.1767 12.3645 94.0072 12.2963L93.8732 12.2423L96.0364 7.09874L96.6642 7.37218Z" fill="white"/>
<path d="M106.329 19.0638L109.5 14.5L108.934 14.1036L105.756 18.6758C105.85 18.7445 105.945 18.8093 106.039 18.8741C106.133 18.9388 106.227 19.0036 106.322 19.0723L106.329 19.0638Z" fill="white"/>
<path d="M119.223 22.209L115.252 26.1117L114.779 25.6047L118.74 21.7035L119.223 22.209Z" fill="white"/>
<path d="M123.934 27.7331L119.588 31.1935C119.519 31.1019 119.448 31.0107 119.376 30.9195C119.305 30.8282 119.234 30.737 119.165 30.6454L123.511 27.1849L123.934 27.7331Z" fill="white"/>
<path d="M123.384 36.7144L128.054 33.7373L127.693 33.1465L123.012 36.1252C123.075 36.2231 123.137 36.3215 123.198 36.4199C123.259 36.5182 123.32 36.6165 123.384 36.7144Z" fill="white"/>
<path d="M134.328 46.8765L129.164 48.7968L129.153 48.7984C129.112 48.6791 129.066 48.5639 129.021 48.45L129.02 48.4485C128.98 48.3471 128.94 48.2469 128.905 48.146L134.091 46.2225L134.328 46.8765Z" fill="white"/>
<path d="M126.587 42.6032L131.531 40.1505L131.232 39.5282L126.278 41.9935L126.345 42.1231C126.429 42.2867 126.512 42.4466 126.588 42.6143L126.587 42.6032Z" fill="white"/>
<path d="M136.418 53.8851L131.075 55.2447L131.064 55.2463C131.037 55.1318 131.007 55.0205 130.977 54.9092C130.948 54.7978 130.918 54.6864 130.891 54.5718L136.245 53.2107L136.418 53.8851Z" fill="white"/>
<path d="M130.279 86.1605L135.545 87.883L135.759 87.2135L130.5 85.5L130.279 86.1605Z" fill="white"/>
<path d="M128.22 92.6351L133.276 94.8999L133.556 94.2648L128.5 92C128.452 92.1043 128.406 92.2109 128.36 92.3175C128.339 92.3666 128.318 92.4157 128.296 92.4646L128.261 92.5461C128.247 92.5759 128.234 92.6056 128.22 92.6351Z" fill="white"/>
<path d="M130.286 101.782L125.5 99C125.556 98.8969 125.613 98.796 125.67 98.6951C125.727 98.5943 125.784 98.4934 125.839 98.3903L130.632 101.181L130.286 101.782Z" fill="white"/>
<path d="M118 110L122.097 113.719L122.556 113.201L118.446 109.463C118.375 109.542 118.306 109.625 118.236 109.709C118.158 109.803 118.079 109.899 117.994 109.991L118 110Z" fill="white"/>
<path d="M126.554 107.773L122.097 104.5L122.088 104.507C122.198 104.359 122.299 104.211 122.402 104.058L122.484 103.938L126.956 107.213L126.554 107.773Z" fill="white"/>
<path d="M113.514 114.828L117.206 118.971L117.713 118.5L114.015 114.348C113.927 114.426 113.844 114.505 113.761 114.584C113.678 114.663 113.595 114.741 113.508 114.819L113.514 114.828Z" fill="white"/>
<path d="M105.685 121.379L108.938 125.913L109.5 125.5L106.247 120.977L105.685 121.379Z" fill="white"/>
<path d="M99.9047 124.846L102.672 129.693L103.268 129.347L100.5 124.5C100.401 124.556 100.302 124.614 100.203 124.673C100.103 124.732 100.004 124.79 99.9047 124.846Z" fill="white"/>
<path d="M96.121 132.894L93.8717 127.79C93.9764 127.74 94.0811 127.693 94.1858 127.645C94.2906 127.598 94.3954 127.55 94.5002 127.5L96.7495 132.615L96.121 132.894Z" fill="white"/>
<path d="M81.1844 131.444L82.3311 136.894L83.0037 136.749L81.857 131.277C81.7531 131.298 81.6493 131.324 81.5443 131.35C81.4263 131.38 81.3069 131.409 81.1844 131.433V131.444Z" fill="white"/>
<path d="M89.3496 135.212L87.6516 129.907H87.6405C87.8154 129.854 87.9833 129.794 88.1553 129.732L88.2911 129.684L90.0002 135L89.3496 135.212Z" fill="white"/>
<path d="M74.6127 132.449L75.186 138L75.8697 137.922L75.2963 132.36C75.1805 132.371 75.0675 132.385 74.9545 132.399C74.8415 132.413 74.7284 132.427 74.6127 132.438V132.449Z" fill="white"/>
<path d="M60.9894 2.55395L61.6515 8.09445L61.6517 8.10561C61.5361 8.11867 61.4233 8.13448 61.3106 8.15029C61.1978 8.1661 61.085 8.18192 60.9694 8.19499L60.3071 2.64333L60.9894 2.55395Z" fill="white"/>
<path d="M53.863 3.77668L55.0967 9.20726L55.0969 9.21842C54.9748 9.24406 54.8559 9.2759 54.7384 9.30735C54.6338 9.33534 54.5303 9.36305 54.4269 9.38579L53.1928 3.93288L53.863 3.77668Z" fill="white"/>
<path d="M42.8119 13.8497L40.4812 8.78335L39.8572 9.07283L42.1881 14.1503C42.292 14.0984 42.396 14.0492 42.5 14C42.604 13.9508 42.708 13.9016 42.8119 13.8497Z" fill="white"/>
<path d="M34.0898 12.1441L36.9346 16.945C36.8362 17.0025 36.7379 17.0628 36.6396 17.123C36.5414 17.1833 36.4431 17.2435 36.3447 17.301L33.5 12.5L34.0898 12.1441Z" fill="white"/>
<path d="M28.1149 16.3805L31.4397 20.8609L30.8839 21.2721L27.5592 16.8029L28.1149 16.3805Z" fill="white"/>
<path d="M48.7826 11.2764L47 6L46.3529 6.22284L48.1468 11.5102L48.2818 11.4595C48.4528 11.3951 48.6197 11.3322 48.7937 11.2762L48.7826 11.2764Z" fill="white"/>
<path d="M19.8935 32.4267L15.4464 29.1322L15.0448 29.698L19.5001 33C19.5696 32.9056 19.6352 32.8114 19.7008 32.7172C19.7665 32.623 19.8322 32.5286 19.9017 32.4342L19.8935 32.4267Z" fill="white"/>
<path d="M16.1727 38.1665L11.4143 35.37L11.0692 35.9726L15.8439 38.784C15.8982 38.6919 15.9489 38.5965 16.0001 38.5C16.0577 38.3916 16.116 38.2818 16.1809 38.174L16.1727 38.1665Z" fill="white"/>
<path d="M5.35972 48.4307L10.6047 50.1667C10.5712 50.2791 10.5357 50.3895 10.5001 50.5C10.4646 50.6105 10.4289 50.7213 10.3955 50.8336L5.14226 49.09L5.35972 48.4307Z" fill="white"/>
<path d="M8.90495 56.6745L3.50014 55.5L3.35394 56.1795L8.75874 57.354C8.78447 57.242 8.80816 57.1281 8.83184 57.0143C8.85553 56.9004 8.87922 56.7865 8.90495 56.6745Z" fill="white"/>
<path d="M7.58313 63.3079L2.08161 62.7075L2.00665 63.4072L7.5 64L7.58313 63.3079Z" fill="white"/>
<path d="M7.97801 41.715L13.0001 44L13.0076 43.9917C12.9291 44.1586 12.8604 44.3251 12.7901 44.4956L12.7344 44.6302L7.69672 42.3459L7.97801 41.715Z" fill="white"/>
<path d="M2.39032 78.312L7.8364 77.4672L7.84741 77.4667C7.86394 77.5833 7.8831 77.697 7.90225 77.8107C7.92141 77.9244 7.94056 78.038 7.9571 78.1546L2.5 79L2.39032 78.312Z" fill="white"/>
<path d="M3.65352 85.6149L8.97313 84.1948L8.98415 84.1942C9.0133 84.3171 9.04847 84.4365 9.0832 84.5544C9.11412 84.6594 9.1447 84.7633 9.17039 84.8673L3.82876 86.2886L3.65352 85.6149Z" fill="white"/>
<path d="M13.6059 96.774L8.68024 99.2933L8.98553 99.9159L13.9222 97.396C13.8676 97.2925 13.8158 97.1887 13.764 97.085C13.7122 96.9813 13.6604 96.8776 13.6059 96.774Z" fill="white"/>
<path d="M12.2256 105.663L16.8733 102.632C16.933 102.73 16.9956 102.827 17.0581 102.925C17.1207 103.022 17.1832 103.12 17.2431 103.218L12.5954 106.249L12.2256 105.663Z" fill="white"/>
<path d="M16.2606 111.958L20.5767 108.45L21 109L16.6949 112.507L16.2606 111.958Z" fill="white"/>
<path d="M10.9641 90.6063L5.81396 92.5774L6.05422 93.2255L11.2149 91.2428L11.1606 91.1077C11.0917 90.9366 11.0243 90.7696 10.9636 90.5952L10.9641 90.6063Z" fill="white"/>
<path d="M31.8249 119.461L28.5616 123.958L29.1192 124.366L32.3899 119.861C32.2969 119.79 32.2041 119.724 32.1113 119.657C32.0184 119.59 31.9254 119.524 31.8323 119.453L31.8249 119.461Z" fill="white"/>
<path d="M37.3538 123.197L34.5813 128.01L35.1753 128.361L37.9626 123.532C37.8718 123.477 37.7777 123.425 37.6826 123.373C37.5758 123.314 37.4674 123.255 37.3612 123.189L37.3538 123.197Z" fill="white"/>
<path d="M47.4444 134.202L49.1712 128.893C49.2821 128.927 49.3911 128.964 49.5001 129C49.6092 129.036 49.7182 129.073 49.8291 129.107L48.0948 134.424L47.4444 134.202Z" fill="white"/>
<path d="M55.8297 130.85L54.6569 136.322L55.3273 136.472L56.5001 131C56.3897 130.974 56.2774 130.949 56.1651 130.925C56.0527 130.901 55.9402 130.877 55.8297 130.85Z" fill="white"/>
<path d="M62.3171 131.914L61.7109 137.485L62.4014 137.563L63.0001 132L62.3171 131.914Z" fill="white"/>
<path d="M41.0001 131.5L43.2683 126.418L43.2601 126.411C43.4247 126.491 43.5888 126.561 43.7568 126.632L43.8898 126.689L41.6223 131.786L41.0001 131.5Z" fill="white"/>
</g>
<g id="Circle_2">
<g id="Group 145">
<path id="Union" d="M128.497 59.7608C128.634 60.4448 128.755 61.1273 128.867 61.8169L128.852 61.8195L128.868 61.8209L128.867 61.8169L137.137 60.3818L136.782 58.323L128.497 59.7608Z" fill="white"/>
<path id="Union_2" d="M128.864 79.3249C128.758 80.0143 128.637 80.6969 128.507 81.3834L128.492 81.3807L128.506 81.3874L128.507 81.3834L136.77 82.852L137.142 80.7962L128.864 79.3249Z" fill="white"/>
<path id="Union_3" d="M109.266 115.924C108.749 116.393 108.224 116.848 107.69 117.3L107.679 117.288L107.686 117.302L107.69 117.3L113.183 123.627L114.77 122.263L109.266 115.924Z" fill="white"/>
<path id="Union_4" d="M68.5 139.005C69.1989 138.979 69.8939 138.969 70.5946 138.968L70.5948 138.984L70.5987 138.968L70.5946 138.968L70.4929 130.599L68.3981 130.62L68.5 139.005Z" fill="white"/>
<path id="Union_5" d="M20.1009 117.557C20.6012 118.044 21.0878 118.539 21.5714 119.044L21.5604 119.055L21.5742 119.047L21.5714 119.044L27.5807 113.201L26.1212 111.702L20.1009 117.557Z" fill="white"/>
<path id="Union_6" d="M1.00679 69.4143C1.0248 70.1115 1.02757 70.8046 1.0207 71.5032L1.00537 71.5033L1.02065 71.5073L1.0207 71.5032L9.41436 71.4916L9.41576 69.4026L1.00679 69.4143Z" fill="white"/>
<path id="Union_7" d="M20.6943 21.1492C20.2313 21.6719 19.7599 22.1812 19.2777 22.6882L19.2665 22.6778L19.2749 22.6911L19.2777 22.6882L25.4317 28.3799L26.8595 26.8513L20.6943 21.1492Z" fill="white"/>
<path id="Union_8" d="M69.3362 0.998812C68.6372 1.0209 67.9421 1.02778 67.2414 1.02507L67.2413 1.00979L67.2373 1.02505L67.2414 1.02507L67.3029 9.39453L69.3978 9.38354L69.3362 0.998812Z" fill="white"/>
<path id="Union_9" d="M107.832 23.0384C108.367 23.4884 108.888 23.9471 109.407 24.4167L109.396 24.4281L109.41 24.4195L109.407 24.4167L114.978 18.1565L113.414 16.7667L107.832 23.0384Z" fill="white"/>
</g>
</g>
</g>
<defs>
<linearGradient id="paint0_linear_4735_84528" x1="7.5" y1="0" x2="7.5" y2="24" gradientUnits="userSpaceOnUse">
<stop stop-color="#434343" stop-opacity="0"/>
<stop offset="0.503675" stop-color="#434343"/>
<stop offset="1" stop-color="#434343" stop-opacity="0"/>
</linearGradient>
<linearGradient id="paint1_linear_4735_84528" x1="7.5" y1="0" x2="7.5" y2="24" gradientUnits="userSpaceOnUse">
<stop stop-color="#434343" stop-opacity="0"/>
<stop offset="0.503675" stop-color="#434343"/>
<stop offset="1" stop-color="#434343" stop-opacity="0"/>
</linearGradient>
</defs>
</svg>
